<?xml version="1.0" encoding="UTF-8"?>
<svg xmlns="http://www.w3.org/2000/svg" xmlns:xlink="http://www.w3.org/1999/xlink" width="499.11pt" height="163.59pt" viewBox="0 0 499.11 163.59" version="1.1">
<defs>
<clipPath id="clip1">
  <path d="M 337 0 L 499.109375 0 L 499.109375 163 L 337 163 Z M 337 0 "/>
</clipPath>
<clipPath id="clip2">
  <path d="M 161 0 L 350 0 L 350 163.589844 L 161 163.589844 Z M 161 0 "/>
</clipPath>
</defs>
<g id="surface1">
<path style=" stroke:none;fill-rule:nonzero;fill:rgb(13.699341%,12.199402%,12.5%);fill-opacity:1;" d="M 137.984375 25.214844 L 99.847656 114.660156 C 92.605469 131.609375 85.710938 143.898438 79.160156 151.527344 C 72.613281 159.15625 64.253906 162.96875 54.085938 162.96875 C 44.839844 162.96875 37.445313 161.429688 31.898438 158.34375 C 23.730469 153.878906 21.03125 147.945313 23.804688 140.546875 C 26.273438 134.078125 31.28125 132.070313 38.828125 134.539063 C 39.601563 134.691406 40.949219 135.15625 42.875 135.925781 C 44.800781 136.695313 46.496094 137.234375 47.960938 137.542969 C 49.421875 137.851563 51.003906 138.003906 52.699219 138.003906 C 56.550781 138.003906 59.863281 136.425781 62.636719 133.269531 C 65.410156 130.109375 68.027344 125.292969 70.496094 118.824219 L 15.949219 25.214844 L 12.480469 25.214844 C 8.78125 25.214844 5.777344 24.136719 3.46875 21.980469 C 1.15625 19.820313 0 16.894531 0 13.195313 C 0 9.652344 1.15625 6.761719 3.46875 4.527344 C 5.777344 2.292969 8.78125 1.175781 12.480469 1.175781 L 50.15625 1.175781 C 53.851563 1.175781 56.855469 2.292969 59.167969 4.527344 C 61.480469 6.761719 62.636719 9.652344 62.636719 13.195313 C 62.636719 16.894531 61.480469 19.820313 59.167969 21.980469 C 56.855469 24.136719 53.851563 25.214844 50.15625 25.214844 L 46.917969 25.214844 L 83.4375 92.703125 L 111.171875 25.214844 L 107.242188 25.214844 C 103.546875 25.214844 100.539063 24.136719 98.230469 21.980469 C 95.917969 19.820313 94.765625 16.894531 94.765625 13.195313 C 94.765625 9.652344 95.917969 6.761719 98.230469 4.527344 C 100.539063 2.292969 103.546875 1.175781 107.242188 1.175781 L 141.914063 1.175781 C 145.609375 1.175781 148.617188 2.292969 150.929688 4.527344 C 153.238281 6.761719 154.394531 9.652344 154.394531 13.195313 C 154.394531 16.894531 153.238281 19.820313 150.929688 21.980469 C 148.617188 24.136719 145.609375 25.214844 141.914063 25.214844 L 137.984375 25.214844 "/>
<g clip-path="url(#clip1)" clip-rule="nonzero">
<path style=" stroke:none;fill-rule:nonzero;fill:rgb(13.699341%,12.199402%,12.5%);fill-opacity:1;" d="M 394.871094 95.777344 L 439.015625 95.777344 L 416.597656 37.53125 Z M 349.570313 162.574219 C 345.871094 162.574219 342.867188 161.492188 340.554688 159.339844 C 338.246094 157.179688 337.085938 154.25 337.085938 150.554688 C 337.085938 147.011719 338.246094 144.121094 340.554688 141.886719 C 342.867188 139.652344 345.871094 138.535156 349.570313 138.535156 L 353.496094 138.535156 L 403.886719 12.105469 C 406.8125 4.554688 411.511719 0.78125 417.984375 0.78125 C 424.148438 0.78125 428.617188 4.09375 431.390625 10.722656 L 483.394531 138.535156 L 486.628906 138.535156 C 490.328125 138.535156 493.332031 139.652344 495.640625 141.886719 C 497.957031 144.121094 499.109375 147.011719 499.109375 150.554688 C 499.109375 154.25 497.957031 157.179688 495.640625 159.339844 C 493.332031 161.492188 490.328125 162.574219 486.628906 162.574219 L 452.652344 162.574219 C 448.957031 162.574219 445.949219 161.492188 443.640625 159.339844 C 441.328125 157.179688 440.171875 154.25 440.171875 150.554688 C 440.171875 147.011719 441.328125 144.121094 443.640625 141.886719 C 445.949219 139.652344 448.957031 138.535156 452.652344 138.535156 L 454.734375 138.535156 L 446.875 117.503906 L 387.476563 117.503906 L 379.617188 138.535156 L 381.925781 138.535156 C 385.625 138.535156 388.632813 139.652344 390.941406 141.886719 C 393.253906 144.121094 394.410156 147.011719 394.410156 150.554688 C 394.410156 154.25 393.253906 157.179688 390.941406 159.339844 C 388.632813 161.492188 385.625 162.574219 381.925781 162.574219 L 349.570313 162.574219 "/>
</g>
<g clip-path="url(#clip2)" clip-rule="nonzero">
<path style=" stroke:none;fill-rule:nonzero;fill:rgb(92.89856%,10.998535%,14.099121%);fill-opacity:1;" d="M 295.605469 -0.00390625 L 294.578125 0.0078125 C 279.183594 0.214844 265.035156 6.867188 255.007813 18.246094 C 244.804688 7.269531 230.625 0.964844 215.054688 0.964844 L 215.039063 0.964844 C 201.226563 1.023438 188.121094 6.648438 178.136719 16.808594 C 167.171875 27.960938 161.011719 43.726563 161.21875 60.050781 C 161.289063 66.199219 162.257813 72.183594 163.902344 77.136719 C 167.332031 92.179688 185.320313 111.945313 220.539063 139.363281 C 229.71875 146.457031 243.570313 156.089844 249.496094 160.210938 L 251.972656 161.933594 C 252.292969 162.175781 252.632813 162.402344 252.984375 162.601563 C 254.1875 163.257813 255.519531 163.589844 256.839844 163.589844 C 258.320313 163.589844 259.816406 163.171875 261.105469 162.351563 C 268.992188 157.34375 279.609375 149.347656 292.65625 138.597656 C 326.582031 110.800781 344.542969 89.949219 347.402344 75.539063 C 349.089844 69.824219 349.910156 63.824219 349.832031 57.691406 C 349.421875 25.878906 325.101563 -0.00390625 295.605469 -0.00390625 Z M 295.6875 22.148438 C 313.082031 22.199219 327.429688 38.253906 327.683594 57.960938 C 327.734375 61.867188 327.21875 65.671875 326.15625 69.265625 L 325.871094 70.234375 L 325.671875 71.226563 C 325.390625 72.65625 321.664063 86.191406 278.574219 121.5 C 270.179688 128.414063 262.941406 134.066406 256.933594 138.394531 C 250.269531 133.730469 240.769531 127.003906 234.144531 121.886719 C 192.042969 89.105469 186.265625 75.574219 185.496094 72.207031 L 185.261719 71.171875 L 184.925781 70.164063 C 183.980469 67.308594 183.410156 63.527344 183.367188 59.773438 C 183.234375 49.300781 187.085938 39.300781 193.9375 32.332031 C 199.746094 26.421875 207.273438 23.148438 215.054688 23.117188 C 224.234375 23.117188 232.664063 26.742188 238.785156 33.328125 L 255.445313 51.25 L 271.625 32.890625 C 277.605469 26.101563 285.84375 22.292969 294.820313 22.15625 L 295.6875 22.148438 "/>
</g>
<path style=" stroke:none;fill-rule:nonzero;fill:rgb(92.89856%,10.998535%,14.099121%);fill-opacity:1;" d="M 255.527344 159.109375 C 249.410156 159.109375 244.449219 154.152344 244.449219 148.035156 L 244.449219 29.226563 C 244.449219 23.109375 249.410156 18.152344 255.527344 18.152344 C 261.644531 18.152344 266.601563 23.109375 266.601563 29.226563 L 266.601563 148.035156 C 266.601563 154.152344 261.644531 159.109375 255.527344 159.109375 "/>
</g>
</svg>
